
<svg width="104" height="136" viewBox="0 0 104 136" fill="none" xmlns="http://www.w3.org/2000/svg">
<g filter="url(#filter0_d_171_27)">
<path d="M100 48C100 69.85 70.75 108.75 57.925 124.8C54.85 128.625 49.15 128.625 46.075 124.8C33.25 108.75 4 69.85 4 48C4 21.5 25.5 0 52 0C78.5 0 100 21.5 100 48Z" fill="black"/>
</g>
<g clip-path="url(#clip0_171_27)">
<path d="M51.5 33C53.8408 33 56.0986 33.2988 58.2734 33.8965C60.4482 34.4941 62.4736 35.3574 64.3496 36.4863C66.2256 37.6152 67.9438 38.9434 69.5044 40.4707C71.0649 41.998 72.4014 43.7163 73.5137 45.6255C74.626 47.5347 75.481 49.5684 76.0786 51.7266C76.6763 53.8848 76.9834 56.1426 77 58.5C77 60.8408 76.7012 63.0986 76.1035 65.2734C75.5059 67.4482 74.6426 69.4736 73.5137 71.3496C72.3848 73.2256 71.0566 74.9438 69.5293 76.5044C68.002 78.0649 66.2837 79.4014 64.3745 80.5137C62.4653 81.626 60.4316 82.481 58.2734 83.0786C56.1152 83.6763 53.8574 83.9834 51.5 84C49.1592 84 46.9014 83.7012 44.7266 83.1035C42.5518 82.5059 40.5264 81.6426 38.6504 80.5137C36.7744 79.3848 35.0562 78.0566 33.4956 76.5293C31.9351 75.002 30.5986 73.2837 29.4863 71.3745C28.374 69.4653 27.519 67.4316 26.9214 65.2734C26.3237 63.1152 26.0166 60.8574 26 58.5C26 56.1592 26.2988 53.9014 26.8965 51.7266C27.4941 49.5518 28.3574 47.5264 29.4863 45.6504C30.6152 43.7744 31.9434 42.0562 33.4707 40.4956C34.998 38.9351 36.7163 37.5986 38.6255 36.4863C40.5347 35.374 42.5684 34.519 44.7266 33.9214C46.8848 33.3237 49.1426 33.0166 51.5 33ZM66.5161 50.0581L63.1294 46.6714L46.7188 63.082L39.8706 56.2339L36.4839 59.6206L46.7188 69.8555L66.5161 50.0581Z" fill="#FF6600"/>
</g>
<defs>
<filter id="filter0_d_171_27" x="0" y="0" width="104" height="135.669" filterUnits="userSpaceOnUse" color-interpolation-filters="sRGB">
<feFlood flood-opacity="0" result="BackgroundImageFix"/>
<feColorMatrix in="SourceAlpha" type="matrix" values="0 0 0 0 0 0 0 0 0 0 0 0 0 0 0 0 0 0 127 0" result="hardAlpha"/>
<feOffset dy="4"/>
<feGaussianBlur stdDeviation="2"/>
<feComposite in2="hardAlpha" operator="out"/>
<feColorMatrix type="matrix" values="0 0 0 0 0 0 0 0 0 0 0 0 0 0 0 0 0 0 0.25 0"/>
<feBlend mode="normal" in2="BackgroundImageFix" result="effect1_dropShadow_171_27"/>
<feBlend mode="normal" in="SourceGraphic" in2="effect1_dropShadow_171_27" result="shape"/>
</filter>
<clipPath id="clip0_171_27">
<rect width="51" height="51" fill="white" transform="translate(26 33)"/>
</clipPath>
</defs>
</svg>
