<svg width="96" height="128" viewBox="0 0 96 128" fill="none" xmlns="http://www.w3.org/2000/svg">
<g clip-path="url(#clip0_168_23)">
<g filter="url(#filter0_d_168_23)">
<path d="M96 48C96 69.85 66.75 108.75 53.925 124.8C50.85 128.625 45.15 128.625 42.075 124.8C29.25 108.75 0 69.85 0 48C0 21.5 21.5 0 48 0C74.5 0 96 21.5 96 48Z" fill="black"/>
</g>
<path d="M53.875 49.25H65.3287L58.2525 40.75H53.875V49.25ZM59.1875 67.3125C60.0162 67.3125 60.76 67.0362 61.3975 66.3987C62.035 65.7612 62.375 65.0175 62.375 64.125C62.375 63.2963 62.035 62.5525 61.3975 61.915C60.76 61.2775 60.0162 60.9375 59.1875 60.9375C58.295 60.9375 57.5513 61.2775 56.9138 61.915C56.2763 62.5525 56 63.2963 56 64.125C56 65.0175 56.2763 65.7612 56.9138 66.3987C57.5513 67.0362 58.295 67.3125 59.1875 67.3125ZM34.75 67.3125C35.685 67.3125 36.45 67.0362 37.045 66.3987C37.64 65.7612 37.9375 65.0175 37.9375 64.125C37.9375 63.2963 37.64 62.5525 37.045 61.915C36.45 61.2775 35.685 60.9375 34.75 60.9375C33.815 60.9375 33.05 61.2775 32.455 61.915C31.86 62.5525 31.5625 63.2963 31.5625 64.125C31.5625 65.0175 31.86 65.7612 32.455 66.3987C33.05 67.0362 33.815 67.3125 34.75 67.3125ZM60.25 36.5L70.875 49.25V64.125H65.5625C65.5625 65.8887 64.9038 67.3762 63.6288 68.6512C62.375 69.905 60.8875 70.5 59.1875 70.5C57.4238 70.5 55.9363 69.905 54.6825 68.6512C53.4075 67.3762 52.8125 65.8887 52.8125 64.125H41.125C41.125 65.8887 40.4875 67.3762 39.2337 68.6512C37.9375 69.905 36.4713 70.5 34.75 70.5C33.0287 70.5 31.5625 69.905 30.2663 68.6512C29.0125 67.3762 28.375 65.8887 28.375 64.125H24.125V55.625H41.5287L28.375 45.2337V51.375H24.125V38.625H26.25L49.625 51.5025V36.5H60.25Z" fill="#FF6600"/>
</g>
<defs>
<filter id="filter0_d_168_23" x="-4" y="0" width="104" height="135.669" filterUnits="userSpaceOnUse" color-interpolation-filters="sRGB">
<feFlood flood-opacity="0" result="BackgroundImageFix"/>
<feColorMatrix in="SourceAlpha" type="matrix" values="0 0 0 0 0 0 0 0 0 0 0 0 0 0 0 0 0 0 127 0" result="hardAlpha"/>
<feOffset dy="4"/>
<feGaussianBlur stdDeviation="2"/>
<feComposite in2="hardAlpha" operator="out"/>
<feColorMatrix type="matrix" values="0 0 0 0 0 0 0 0 0 0 0 0 0 0 0 0 0 0 0.25 0"/>
<feBlend mode="normal" in2="BackgroundImageFix" result="effect1_dropShadow_168_23"/>
<feBlend mode="normal" in="SourceGraphic" in2="effect1_dropShadow_168_23" result="shape"/>
</filter>
<clipPath id="clip0_168_23">
<rect width="96" height="128" fill="white"/>
</clipPath>
</defs>
</svg>
