<svg width="104" height="136" viewBox="0 0 104 136" fill="none" xmlns="http://www.w3.org/2000/svg">
<g filter="url(#filter0_d_0_1)">
<path d="M100 48C100 69.85 70.75 108.75 57.925 124.8C54.85 128.625 49.15 128.625 46.075 124.8C33.25 108.75 4 69.85 4 48C4 21.5 25.5 0 52 0C78.5 0 100 21.5 100 48Z" fill="black"/>
</g>
<path d="M39.8125 32.125C41.3473 32.125 42.8671 32.4273 44.2851 33.0147C45.7031 33.602 46.9915 34.4629 48.0768 35.5482C49.1621 36.6335 50.023 37.9219 50.6103 39.3399C51.1977 40.7579 51.5 42.2777 51.5 43.8125C51.5 45.3473 51.1977 46.8671 50.6103 48.2851C50.023 49.7031 49.1621 50.9915 48.0768 52.0768C46.9915 53.1621 45.7031 54.023 44.2851 54.6103C42.8671 55.1977 41.3473 55.5 39.8125 55.5C36.7128 55.5 33.74 54.2686 31.5482 52.0768C29.3564 49.885 28.125 46.9122 28.125 43.8125C28.125 40.7128 29.3564 37.74 31.5482 35.5482C33.74 33.3564 36.7128 32.125 39.8125 32.125ZM44.0625 43.8125H39.8125V38.5C39.8125 38.2182 39.7006 37.948 39.5013 37.7487C39.302 37.5494 39.0318 37.4375 38.75 37.4375C38.4682 37.4375 38.198 37.5494 37.9987 37.7487C37.7994 37.948 37.6875 38.2182 37.6875 38.5V44.875C37.6875 45.1568 37.7994 45.427 37.9987 45.6263C38.198 45.8256 38.4682 45.9375 38.75 45.9375H44.0625C44.3443 45.9375 44.6145 45.8256 44.8138 45.6263C45.0131 45.427 45.125 45.1568 45.125 44.875C45.125 44.5932 45.0131 44.323 44.8138 44.1237C44.6145 43.9244 44.3443 43.8125 44.0625 43.8125ZM39.8125 57.625C43.3778 57.6296 46.8059 56.2508 49.375 53.7787V55.5H59.8598L55.6098 48.3048C55.3751 47.9076 55.041 47.5785 54.6404 47.3497C54.2399 47.1209 53.7867 47.0004 53.3254 47H53.2574C53.4996 45.98 53.6271 44.9154 53.6271 43.821C54.5908 43.8708 55.5271 44.1585 56.3525 44.6583C57.1779 45.1582 57.8667 45.8546 58.3574 46.6855L63.6869 55.7082L68.3257 56.8685C69.5897 57.185 70.7116 57.9149 71.5133 58.9421C72.3149 59.9693 72.7502 61.235 72.75 62.538V66.125C72.7504 67.2366 72.4337 68.3253 71.8371 69.2633C71.2405 70.2012 70.3888 70.9496 69.3819 71.4205C69.037 72.8895 68.2206 74.2052 67.0575 75.1665C65.8945 76.1279 64.4486 76.6819 62.9409 76.7441C61.4333 76.8062 59.9467 76.3731 58.7084 75.5107C57.4701 74.6484 56.5482 73.4044 56.0836 71.9688H45.8539C45.3688 73.4658 44.3872 74.7524 43.0714 75.6157C41.7556 76.4789 40.1845 76.867 38.6181 76.7159C37.0517 76.5647 35.5839 75.8832 34.4575 74.7843C33.3311 73.6853 32.6136 72.2347 32.4239 70.6725C31.7446 70.1253 31.1966 69.4327 30.8204 68.6457C30.4442 67.8587 30.2493 66.9973 30.25 66.125V61.3438C30.2496 60.2538 30.5541 59.1854 31.129 58.2594C31.7039 57.3334 32.5263 56.5867 33.5034 56.1035C35.3946 57.0768 37.5409 57.625 39.8125 57.625ZM39.2812 66.125C38.295 66.125 37.3491 66.5168 36.6517 67.2142C35.9543 67.9116 35.5625 68.8575 35.5625 69.8438C35.5625 70.83 35.9543 71.7759 36.6517 72.4733C37.3491 73.1707 38.295 73.5625 39.2812 73.5625C40.2675 73.5625 41.2134 73.1707 41.9108 72.4733C42.6082 71.7759 43 70.83 43 69.8438C43 68.8575 42.6082 67.9116 41.9108 67.2142C41.2134 66.5168 40.2675 66.125 39.2812 66.125ZM58.9375 69.8438C58.9375 70.83 59.3293 71.7759 60.0267 72.4733C60.7241 73.1707 61.67 73.5625 62.6562 73.5625C63.6425 73.5625 64.5884 73.1707 65.2858 72.4733C65.9832 71.7759 66.375 70.83 66.375 69.8438C66.375 68.8575 65.9832 67.9116 65.2858 67.2142C64.5884 66.5168 63.6425 66.125 62.6562 66.125C61.67 66.125 60.7241 66.5168 60.0267 67.2142C59.3293 67.9116 58.9375 68.8575 58.9375 69.8438Z" fill="#FF6600"/>
<defs>
<filter id="filter0_d_0_1" x="0" y="0" width="104" height="135.669" filterUnits="userSpaceOnUse" color-interpolation-filters="sRGB">
<feFlood flood-opacity="0" result="BackgroundImageFix"/>
<feColorMatrix in="SourceAlpha" type="matrix" values="0 0 0 0 0 0 0 0 0 0 0 0 0 0 0 0 0 0 127 0" result="hardAlpha"/>
<feOffset dy="4"/>
<feGaussianBlur stdDeviation="2"/>
<feComposite in2="hardAlpha" operator="out"/>
<feColorMatrix type="matrix" values="0 0 0 0 0 0 0 0 0 0 0 0 0 0 0 0 0 0 0.25 0"/>
<feBlend mode="normal" in2="BackgroundImageFix" result="effect1_dropShadow_0_1"/>
<feBlend mode="normal" in="SourceGraphic" in2="effect1_dropShadow_0_1" result="shape"/>
</filter>
</defs>
</svg>


